<svg width="145" height="30" viewBox="0 0 145 30" fill="none" xmlns="http://www.w3.org/2000/svg">
<path d="M12.5001 13.9697L0 0V16.4247L4.24194 20.9221L6.94267 17.9699L4.10355 15.0966V10.4479L9.91395 16.8599L7.30052 19.7806L5.18348 22.1464L12.5 30L19.8165 22.1464L17.6995 19.7806L15.086 16.8599L20.8965 10.4479V15.0966L18.0573 17.9699L20.7581 20.9221L25 16.4247V0L12.4999 13.9697H12.5001ZM12.5001 19.7138L14.5499 21.976L12.5001 24.317L10.4503 21.976L12.5001 19.7138Z" fill="#20273C"/>
<path d="M56.4493 21.3503H52.3732L49.683 17.2457L48.4037 18.6086V21.3503H45V10.1921H48.4037V14.6632L52.2585 10.1921H56.1869L52.0122 14.7113L56.4493 21.3503Z" fill="#20273C"/>
<path d="M61.6663 21.3503H58.333V10.1921H61.6663V21.3503Z" fill="#20273C"/>
<path d="M70.3863 21.3503H66.988V12.8302H63.6953V10.1921H73.6953V12.8302H70.3863V21.3503Z" fill="#20273C"/>
<path d="M80.3774 21.3496C78.4242 21.3496 76.5836 20.7447 74.855 19.5354L76.1349 17.1635C76.9939 17.726 77.7925 18.1321 78.5309 18.3815C79.2694 18.6309 79.8957 18.7555 80.41 18.7555C81.1979 18.7555 81.5917 18.5054 81.5917 18.0055C81.5917 17.682 81.3729 17.4446 80.9354 17.2931C80.5305 17.1315 80.0657 16.9901 79.5403 16.8687C78.884 16.7072 78.2082 16.495 77.5135 16.2322C76.2336 15.707 75.5934 14.8178 75.5934 13.5645C75.5934 12.8219 75.8041 12.2007 76.2251 11.7004C76.7118 11.1599 77.3166 10.7736 78.0385 10.5409C78.7605 10.3083 79.5292 10.1921 80.3444 10.1921C82.1167 10.1921 83.7167 10.6273 85.1448 11.4972L83.881 14.0086C82.4533 13.1938 81.1814 12.7865 80.0653 12.7865C79.4306 12.7865 79.1135 12.9913 79.1135 13.4003C79.1135 13.6631 79.2778 13.8854 79.6059 14.0674C79.9341 14.2494 80.4649 14.4184 81.1979 14.5751C81.8872 14.7318 82.5504 14.944 83.1879 15.2116C83.825 15.4796 84.3462 15.9065 84.7511 16.4924C84.9917 16.8661 85.1122 17.3564 85.1122 17.9627C85.1122 18.7559 84.8877 19.4025 84.4394 19.9027C83.9581 20.4231 83.3591 20.7946 82.6425 21.0168C81.926 21.239 81.1711 21.3503 80.3778 21.3503L80.3774 21.3496Z" fill="#20273C"/>
<path d="M92.36 21.3503C91.3585 21.3503 90.4674 21.1864 89.6866 20.8579C88.9055 20.5297 88.2675 20.0023 87.7723 19.2755C87.2771 18.5488 87.0293 17.6596 87.0293 16.6073V10.1921H90.417V16.5678C90.417 17.2718 90.6213 17.7859 91.0294 18.1092C91.4376 18.4329 91.8808 18.5946 92.36 18.5946C92.8716 18.5946 93.3095 18.4381 93.6742 18.1249C94.0388 17.8116 94.2213 17.2927 94.2213 16.5678V10.1921H97.609V16.6073C97.609 18.1129 97.1234 19.2796 96.1521 20.1077C95.1808 20.9361 93.9166 21.35 92.3604 21.35L92.36 21.3503Z" fill="#20273C"/>
<path d="M111.087 21.3503H108.189L103.336 15.1418V21.3503H100.217V10.1921H103.123L107.985 16.4167V10.1921H111.086V21.3503H111.087Z" fill="#20273C"/>
<path d="M123.551 21.3503H113.985V10.1921H123.386V12.7426H117.396V14.488H122.828V17.0385H117.396V18.7998H123.551V21.3503Z" fill="#20273C"/>
<path d="M133.374 10.4906L139.906 2H145L135.921 13.7924L141.827 21.4505H136.135L133.075 17.4827L125.747 27H120.652L130.528 14.181L126.487 8.93683H132.179L133.374 10.4906H133.374Z" fill="#20273C"/>
</svg>
