<?xml version="1.0" encoding="UTF-8" standalone="no"?>
<!DOCTYPE svg PUBLIC "-//W3C//DTD SVG 1.1//EN" "http://www.w3.org/Graphics/SVG/1.1/DTD/svg11.dtd">
<svg width="100%" height="100%" viewBox="0 0 300 300" version="1.1" xmlns="http://www.w3.org/2000/svg" xmlns:xlink="http://www.w3.org/1999/xlink" xml:space="preserve" xmlns:serif="http://www.serif.com/" style="fill-rule:evenodd;clip-rule:evenodd;stroke-linejoin:round;stroke-miterlimit:2;">
    <g transform="matrix(1,0,0,1,-2.58539,-3.62942)">
        <path d="M293.271,51.732C293.271,30.324 275.891,12.943 254.483,12.943L50.688,12.943C29.28,12.943 11.899,30.324 11.899,51.732L11.899,255.527C11.899,276.935 29.28,294.316 50.688,294.316L254.483,294.316C275.891,294.316 293.271,276.935 293.271,255.527L293.271,51.732Z" style="fill:rgb(228,37,117);"/>
    </g>
    <path d="M65.849,87.919C70.459,87.883 75.135,89.829 78.23,93.696L113.785,138.137L147.363,96.167C148.472,94.548 150.242,92.092 152.079,90.622C155.364,87.994 156.589,87.909 162.459,88.058C163.149,88.075 163.928,88.122 164.779,88.178L234.816,88.178C242.902,88.178 249.466,94.743 249.466,102.829C249.466,110.915 242.902,117.479 234.816,117.479L191.561,117.479L210.423,141.054C215.474,147.368 213.876,155.952 208.135,161.646C207.544,162.233 207.222,162.706 206.452,163.12L189.767,183.299L234.816,183.299C242.902,183.299 249.466,189.864 249.466,197.95C249.466,206.036 242.902,212.6 234.816,212.6L162.711,212.6C162.18,212.6 161.655,212.572 161.138,212.517C157.329,213.011 153.331,212.018 150.097,209.431C143.784,204.379 142.759,195.152 147.81,188.839L179.469,149.268L160.937,126.104L125.707,170.138C120.655,176.451 111.428,177.476 105.115,172.425C104.501,171.934 103.938,171.404 103.425,170.841C102.103,169.999 100.896,168.929 99.863,167.638L77.844,140.116L77.844,198.884C77.844,206.97 71.279,213.534 63.194,213.534C55.108,213.534 48.543,206.97 48.543,198.884L48.543,102.633C48.543,94.547 55.108,87.983 63.194,87.983C64.109,87.983 65.003,87.925 65.849,87.919Z" style="fill:white;"/>
</svg>
